<mxfile host="Electron" modified="2023-09-24T20:00:50.198Z" agent="Mozilla/5.0 (Macintosh; Intel Mac OS X 10_15_7) AppleWebKit/537.36 (KHTML, like Gecko) draw.io/21.7.5 Chrome/114.0.5735.289 Electron/25.8.1 Safari/537.36" etag="FUO8ln_jA48rgrhTLaqR" version="21.7.5" type="device">
  <diagram name="Page-1" id="nOor3UQUo27xB7jPh9vi">
    <mxGraphModel dx="-1294" dy="1982" grid="1" gridSize="10" guides="1" tooltips="1" connect="1" arrows="1" fold="1" page="1" pageScale="1" pageWidth="827" pageHeight="1169" math="1" shadow="0">
      <root>
        <mxCell id="0" />
        <mxCell id="1" parent="0" />
        <mxCell id="UDYI0fP8FvIa38QDDsYo-68" value="" style="group;movable=1;resizable=1;rotatable=1;deletable=1;editable=1;locked=0;connectable=1;" vertex="1" connectable="0" parent="1">
          <mxGeometry x="3310" y="-720" width="430" height="380" as="geometry" />
        </mxCell>
        <mxCell id="UDYI0fP8FvIa38QDDsYo-69" value="" style="group;movable=0;resizable=0;rotatable=0;deletable=0;editable=0;locked=1;connectable=0;" vertex="1" connectable="0" parent="UDYI0fP8FvIa38QDDsYo-68">
          <mxGeometry y="30" width="410" height="350" as="geometry" />
        </mxCell>
        <mxCell id="UDYI0fP8FvIa38QDDsYo-70" value="" style="rounded=0;whiteSpace=wrap;html=1;fillColor=none;strokeColor=#808080;movable=1;resizable=1;rotatable=1;deletable=1;editable=1;locked=0;connectable=1;" vertex="1" parent="UDYI0fP8FvIa38QDDsYo-69">
          <mxGeometry width="410" height="349.99999999999994" as="geometry" />
        </mxCell>
        <mxCell id="UDYI0fP8FvIa38QDDsYo-71" value="Megfigyelő" style="text;html=1;strokeColor=none;fillColor=none;align=center;verticalAlign=middle;whiteSpace=wrap;rounded=0;" vertex="1" parent="UDYI0fP8FvIa38QDDsYo-69">
          <mxGeometry width="119.03" height="30" as="geometry" />
        </mxCell>
        <mxCell id="UDYI0fP8FvIa38QDDsYo-5" value="$$\hat{C}$$" style="rounded=0;whiteSpace=wrap;html=1;" vertex="1" parent="UDYI0fP8FvIa38QDDsYo-68">
          <mxGeometry x="10.002195121951218" y="90" width="62.926829268292686" height="60" as="geometry" />
        </mxCell>
        <mxCell id="UDYI0fP8FvIa38QDDsYo-9" value="$$\hat{D}$$" style="rounded=0;whiteSpace=wrap;html=1;" vertex="1" parent="UDYI0fP8FvIa38QDDsYo-68">
          <mxGeometry x="10" y="300" width="62.926829268292686" height="60" as="geometry" />
        </mxCell>
        <mxCell id="gZT7zU2L0v1ULoVjLfHo-13" value="" style="group;movable=1;resizable=1;rotatable=1;deletable=1;editable=1;locked=0;connectable=1;" parent="1" vertex="1" connectable="0">
          <mxGeometry x="3370" y="-1000" width="370" height="220" as="geometry" />
        </mxCell>
        <mxCell id="gZT7zU2L0v1ULoVjLfHo-14" value="" style="rounded=0;whiteSpace=wrap;html=1;fillColor=none;strokeColor=#808080;movable=1;resizable=1;rotatable=1;deletable=1;editable=1;locked=0;connectable=1;" parent="gZT7zU2L0v1ULoVjLfHo-13" vertex="1">
          <mxGeometry width="369.99999999999994" height="220" as="geometry" />
        </mxCell>
        <mxCell id="gZT7zU2L0v1ULoVjLfHo-15" value="DC motor dinamika" style="text;html=1;strokeColor=none;fillColor=none;align=center;verticalAlign=middle;whiteSpace=wrap;rounded=0;movable=1;resizable=1;rotatable=1;deletable=1;editable=1;locked=0;connectable=1;" parent="gZT7zU2L0v1ULoVjLfHo-13" vertex="1">
          <mxGeometry width="126.85714285714286" height="30" as="geometry" />
        </mxCell>
        <mxCell id="UDYI0fP8FvIa38QDDsYo-8" value="" style="shape=sumEllipse;perimeter=ellipsePerimeter;whiteSpace=wrap;html=1;backgroundOutline=1;" vertex="1" parent="gZT7zU2L0v1ULoVjLfHo-13">
          <mxGeometry x="49.99999999999984" y="60" width="20" height="20" as="geometry" />
        </mxCell>
        <mxCell id="gZT7zU2L0v1ULoVjLfHo-10" value="" style="group;movable=1;resizable=1;rotatable=1;deletable=1;editable=1;locked=0;connectable=1;" parent="1" vertex="1" connectable="0">
          <mxGeometry x="2960" y="-720" width="350" height="200" as="geometry" />
        </mxCell>
        <mxCell id="UDYI0fP8FvIa38QDDsYo-66" value="" style="group" vertex="1" connectable="0" parent="gZT7zU2L0v1ULoVjLfHo-10">
          <mxGeometry width="350" height="200" as="geometry" />
        </mxCell>
        <mxCell id="gZT7zU2L0v1ULoVjLfHo-11" value="" style="rounded=0;whiteSpace=wrap;html=1;fillColor=none;strokeColor=#808080;movable=1;resizable=1;rotatable=1;deletable=1;editable=1;locked=0;connectable=1;" parent="UDYI0fP8FvIa38QDDsYo-66" vertex="1">
          <mxGeometry width="330" height="200" as="geometry" />
        </mxCell>
        <mxCell id="gZT7zU2L0v1ULoVjLfHo-12" value="Kompenzátor" style="text;html=1;strokeColor=none;fillColor=none;align=center;verticalAlign=middle;whiteSpace=wrap;rounded=0;" parent="UDYI0fP8FvIa38QDDsYo-66" vertex="1">
          <mxGeometry y="160" width="101.61290322580646" height="40" as="geometry" />
        </mxCell>
        <mxCell id="UDYI0fP8FvIa38QDDsYo-31" value="$$J$$" style="rounded=0;whiteSpace=wrap;html=1;" vertex="1" parent="UDYI0fP8FvIa38QDDsYo-66">
          <mxGeometry x="203.61111111111111" y="20" width="58.333333333333336" height="60" as="geometry" />
        </mxCell>
        <mxCell id="gZT7zU2L0v1ULoVjLfHo-17" style="edgeStyle=orthogonalEdgeStyle;rounded=0;orthogonalLoop=1;jettySize=auto;html=1;entryX=0;entryY=0.5;entryDx=0;entryDy=0;" parent="1" edge="1" target="gZT7zU2L0v1ULoVjLfHo-22">
          <mxGeometry relative="1" as="geometry">
            <mxPoint x="2655" y="-919.9999999999999" as="targetPoint" />
            <mxPoint x="2690" y="-930" as="sourcePoint" />
            <Array as="points">
              <mxPoint x="2710" y="-930" />
              <mxPoint x="2710" y="-930" />
            </Array>
          </mxGeometry>
        </mxCell>
        <mxCell id="gZT7zU2L0v1ULoVjLfHo-18" value="$$\theta_r$$" style="edgeLabel;html=1;align=center;verticalAlign=middle;resizable=0;points=[];labelBackgroundColor=none;" parent="gZT7zU2L0v1ULoVjLfHo-17" vertex="1" connectable="0">
          <mxGeometry x="-0.1209" y="-1" relative="1" as="geometry">
            <mxPoint x="-1" y="-11" as="offset" />
          </mxGeometry>
        </mxCell>
        <mxCell id="gZT7zU2L0v1ULoVjLfHo-21" style="edgeStyle=orthogonalEdgeStyle;rounded=0;orthogonalLoop=1;jettySize=auto;html=1;entryX=0;entryY=0.5;entryDx=0;entryDy=0;" parent="1" source="gZT7zU2L0v1ULoVjLfHo-22" target="UDYI0fP8FvIa38QDDsYo-25" edge="1">
          <mxGeometry relative="1" as="geometry">
            <mxPoint x="2840" y="-930" as="targetPoint" />
          </mxGeometry>
        </mxCell>
        <mxCell id="UDYI0fP8FvIa38QDDsYo-59" value="+" style="edgeLabel;html=1;align=center;verticalAlign=middle;resizable=0;points=[];" vertex="1" connectable="0" parent="gZT7zU2L0v1ULoVjLfHo-21">
          <mxGeometry x="0.5059" y="-1" relative="1" as="geometry">
            <mxPoint y="9" as="offset" />
          </mxGeometry>
        </mxCell>
        <mxCell id="gZT7zU2L0v1ULoVjLfHo-22" value="$$k_1$$" style="rounded=0;whiteSpace=wrap;html=1;" parent="1" vertex="1">
          <mxGeometry x="2740" y="-960" width="60" height="60" as="geometry" />
        </mxCell>
        <mxCell id="UDYI0fP8FvIa38QDDsYo-23" style="edgeStyle=orthogonalEdgeStyle;rounded=0;orthogonalLoop=1;jettySize=auto;html=1;entryX=0;entryY=0.5;entryDx=0;entryDy=0;" edge="1" parent="1" source="gZT7zU2L0v1ULoVjLfHo-24" target="UDYI0fP8FvIa38QDDsYo-18">
          <mxGeometry relative="1" as="geometry" />
        </mxCell>
        <mxCell id="UDYI0fP8FvIa38QDDsYo-50" value="+" style="edgeLabel;html=1;align=center;verticalAlign=middle;resizable=0;points=[];labelBackgroundColor=none;" vertex="1" connectable="0" parent="UDYI0fP8FvIa38QDDsYo-23">
          <mxGeometry x="0.5714" relative="1" as="geometry">
            <mxPoint x="9" y="-10" as="offset" />
          </mxGeometry>
        </mxCell>
        <mxCell id="gZT7zU2L0v1ULoVjLfHo-24" value="$$B_v$$" style="rounded=0;whiteSpace=wrap;html=1;" parent="1" vertex="1">
          <mxGeometry x="3160" y="-960" width="60" height="60" as="geometry" />
        </mxCell>
        <mxCell id="gZT7zU2L0v1ULoVjLfHo-25" style="edgeStyle=orthogonalEdgeStyle;rounded=0;orthogonalLoop=1;jettySize=auto;html=1;entryX=0;entryY=0.5;entryDx=0;entryDy=0;exitX=1;exitY=0.5;exitDx=0;exitDy=0;" parent="1" source="UDYI0fP8FvIa38QDDsYo-8" target="gZT7zU2L0v1ULoVjLfHo-30" edge="1">
          <mxGeometry relative="1" as="geometry">
            <mxPoint x="3447" y="-930" as="sourcePoint" />
            <Array as="points">
              <mxPoint x="3440" y="-930" />
              <mxPoint x="3440" y="-930" />
            </Array>
          </mxGeometry>
        </mxCell>
        <mxCell id="gZT7zU2L0v1ULoVjLfHo-26" value="$$\dot{x}$$" style="edgeLabel;html=1;align=center;verticalAlign=middle;resizable=0;points=[];labelBackgroundColor=none;" parent="gZT7zU2L0v1ULoVjLfHo-25" vertex="1" connectable="0">
          <mxGeometry x="-0.2013" relative="1" as="geometry">
            <mxPoint x="6" y="-15" as="offset" />
          </mxGeometry>
        </mxCell>
        <mxCell id="gZT7zU2L0v1ULoVjLfHo-28" style="edgeStyle=orthogonalEdgeStyle;rounded=0;orthogonalLoop=1;jettySize=auto;html=1;entryX=1;entryY=0.5;entryDx=0;entryDy=0;exitX=1;exitY=0.5;exitDx=0;exitDy=0;" parent="1" source="gZT7zU2L0v1ULoVjLfHo-30" target="gZT7zU2L0v1ULoVjLfHo-32" edge="1">
          <mxGeometry relative="1" as="geometry">
            <Array as="points">
              <mxPoint x="3590" y="-930" />
              <mxPoint x="3590" y="-830" />
            </Array>
          </mxGeometry>
        </mxCell>
        <mxCell id="gZT7zU2L0v1ULoVjLfHo-29" value="$$x$$" style="edgeStyle=orthogonalEdgeStyle;rounded=0;orthogonalLoop=1;jettySize=auto;html=1;entryX=0;entryY=0.5;entryDx=0;entryDy=0;labelBackgroundColor=none;" parent="1" source="gZT7zU2L0v1ULoVjLfHo-30" target="gZT7zU2L0v1ULoVjLfHo-37" edge="1">
          <mxGeometry x="-0.6" y="10" relative="1" as="geometry">
            <mxPoint as="offset" />
          </mxGeometry>
        </mxCell>
        <mxCell id="gZT7zU2L0v1ULoVjLfHo-30" value="$$\int$$" style="rounded=0;whiteSpace=wrap;html=1;" parent="1" vertex="1">
          <mxGeometry x="3480" y="-960" width="60" height="60" as="geometry" />
        </mxCell>
        <mxCell id="gZT7zU2L0v1ULoVjLfHo-31" style="edgeStyle=orthogonalEdgeStyle;rounded=0;orthogonalLoop=1;jettySize=auto;html=1;entryX=0.5;entryY=1;entryDx=0;entryDy=0;" parent="1" source="gZT7zU2L0v1ULoVjLfHo-32" target="UDYI0fP8FvIa38QDDsYo-8" edge="1">
          <mxGeometry relative="1" as="geometry">
            <mxPoint x="3437" y="-915" as="targetPoint" />
          </mxGeometry>
        </mxCell>
        <mxCell id="UDYI0fP8FvIa38QDDsYo-49" value="+" style="edgeLabel;html=1;align=center;verticalAlign=middle;resizable=0;points=[];labelBackgroundColor=none;" vertex="1" connectable="0" parent="gZT7zU2L0v1ULoVjLfHo-31">
          <mxGeometry x="0.757" y="1" relative="1" as="geometry">
            <mxPoint x="-9" y="-6" as="offset" />
          </mxGeometry>
        </mxCell>
        <mxCell id="gZT7zU2L0v1ULoVjLfHo-32" value="$$A$$" style="rounded=0;whiteSpace=wrap;html=1;" parent="1" vertex="1">
          <mxGeometry x="3480" y="-860" width="60" height="60" as="geometry" />
        </mxCell>
        <mxCell id="gZT7zU2L0v1ULoVjLfHo-33" style="edgeStyle=orthogonalEdgeStyle;rounded=0;orthogonalLoop=1;jettySize=auto;html=1;" parent="1" source="gZT7zU2L0v1ULoVjLfHo-37" edge="1">
          <mxGeometry relative="1" as="geometry">
            <mxPoint x="3810" y="-930" as="targetPoint" />
          </mxGeometry>
        </mxCell>
        <mxCell id="gZT7zU2L0v1ULoVjLfHo-34" value="$$\theta$$" style="edgeLabel;html=1;align=center;verticalAlign=middle;resizable=0;points=[];labelBackgroundColor=none;" parent="gZT7zU2L0v1ULoVjLfHo-33" vertex="1" connectable="0">
          <mxGeometry x="-0.0735" relative="1" as="geometry">
            <mxPoint x="-29" y="-10" as="offset" />
          </mxGeometry>
        </mxCell>
        <mxCell id="gZT7zU2L0v1ULoVjLfHo-35" style="edgeStyle=orthogonalEdgeStyle;rounded=0;orthogonalLoop=1;jettySize=auto;html=1;entryX=1;entryY=0.5;entryDx=0;entryDy=0;exitX=1;exitY=0.5;exitDx=0;exitDy=0;" parent="1" source="gZT7zU2L0v1ULoVjLfHo-37" target="gZT7zU2L0v1ULoVjLfHo-52" edge="1">
          <mxGeometry relative="1" as="geometry">
            <mxPoint x="3755.000000000033" y="-545.0000000000001" as="targetPoint" />
            <Array as="points">
              <mxPoint x="3750" y="-930" />
              <mxPoint x="3750" y="-600" />
            </Array>
          </mxGeometry>
        </mxCell>
        <mxCell id="gZT7zU2L0v1ULoVjLfHo-36" style="edgeStyle=orthogonalEdgeStyle;rounded=0;orthogonalLoop=1;jettySize=auto;html=1;entryX=1;entryY=0.5;entryDx=0;entryDy=0;exitX=1;exitY=0.5;exitDx=0;exitDy=0;" parent="1" source="gZT7zU2L0v1ULoVjLfHo-37" target="UDYI0fP8FvIa38QDDsYo-9" edge="1">
          <mxGeometry relative="1" as="geometry">
            <mxPoint x="2920" y="-915" as="targetPoint" />
            <Array as="points">
              <mxPoint x="3750" y="-930" />
              <mxPoint x="3750" y="-390" />
            </Array>
          </mxGeometry>
        </mxCell>
        <mxCell id="gZT7zU2L0v1ULoVjLfHo-37" value="$$C$$" style="rounded=0;whiteSpace=wrap;html=1;" parent="1" vertex="1">
          <mxGeometry x="3640" y="-960" width="60" height="60" as="geometry" />
        </mxCell>
        <mxCell id="gZT7zU2L0v1ULoVjLfHo-38" value="Kompenzált pozíció szabályozó" style="text;html=1;strokeColor=none;fillColor=none;align=center;verticalAlign=middle;whiteSpace=wrap;rounded=0;fontSize=26;" parent="1" vertex="1">
          <mxGeometry x="3145" y="-1120" width="370" height="30" as="geometry" />
        </mxCell>
        <mxCell id="gZT7zU2L0v1ULoVjLfHo-39" style="edgeStyle=orthogonalEdgeStyle;rounded=0;orthogonalLoop=1;jettySize=auto;html=1;entryX=0.5;entryY=0;entryDx=0;entryDy=0;exitX=1;exitY=0.5;exitDx=0;exitDy=0;" parent="1" source="UDYI0fP8FvIa38QDDsYo-37" target="UDYI0fP8FvIa38QDDsYo-2" edge="1">
          <mxGeometry relative="1" as="geometry">
            <mxPoint x="3550" y="-530" as="targetPoint" />
            <mxPoint x="3500" y="-670" as="sourcePoint" />
          </mxGeometry>
        </mxCell>
        <mxCell id="UDYI0fP8FvIa38QDDsYo-60" value="+" style="edgeLabel;html=1;align=center;verticalAlign=middle;resizable=0;points=[];" vertex="1" connectable="0" parent="gZT7zU2L0v1ULoVjLfHo-39">
          <mxGeometry x="0.9219" relative="1" as="geometry">
            <mxPoint x="10" y="6" as="offset" />
          </mxGeometry>
        </mxCell>
        <mxCell id="UDYI0fP8FvIa38QDDsYo-47" style="edgeStyle=orthogonalEdgeStyle;rounded=0;orthogonalLoop=1;jettySize=auto;html=1;entryX=0.5;entryY=0;entryDx=0;entryDy=0;" edge="1" parent="1" source="gZT7zU2L0v1ULoVjLfHo-40" target="UDYI0fP8FvIa38QDDsYo-37">
          <mxGeometry relative="1" as="geometry" />
        </mxCell>
        <mxCell id="UDYI0fP8FvIa38QDDsYo-53" value="+" style="edgeLabel;html=1;align=center;verticalAlign=middle;resizable=0;points=[];labelBackgroundColor=none;" vertex="1" connectable="0" parent="UDYI0fP8FvIa38QDDsYo-47">
          <mxGeometry x="0.7794" y="1" relative="1" as="geometry">
            <mxPoint x="-11" y="5" as="offset" />
          </mxGeometry>
        </mxCell>
        <mxCell id="gZT7zU2L0v1ULoVjLfHo-40" value="$$\hat{F}_v$$" style="rounded=0;whiteSpace=wrap;html=1;" parent="1" vertex="1">
          <mxGeometry x="3160" y="-870" width="60" height="60" as="geometry" />
        </mxCell>
        <mxCell id="gZT7zU2L0v1ULoVjLfHo-41" style="edgeStyle=orthogonalEdgeStyle;rounded=0;orthogonalLoop=1;jettySize=auto;html=1;exitX=0;exitY=0.5;exitDx=0;exitDy=0;entryX=1;entryY=0.5;entryDx=0;entryDy=0;" parent="1" source="gZT7zU2L0v1ULoVjLfHo-48" target="UDYI0fP8FvIa38QDDsYo-5" edge="1">
          <mxGeometry relative="1" as="geometry">
            <mxPoint x="3396.8" y="-550" as="sourcePoint" />
            <mxPoint x="3340" y="-550" as="targetPoint" />
          </mxGeometry>
        </mxCell>
        <mxCell id="gZT7zU2L0v1ULoVjLfHo-42" value="$$\tilde{\eta}$$" style="edgeLabel;html=1;align=center;verticalAlign=middle;resizable=0;points=[];labelBackgroundColor=none;" parent="gZT7zU2L0v1ULoVjLfHo-41" vertex="1" connectable="0">
          <mxGeometry x="-0.2013" relative="1" as="geometry">
            <mxPoint x="9" y="-20" as="offset" />
          </mxGeometry>
        </mxCell>
        <mxCell id="gZT7zU2L0v1ULoVjLfHo-48" value="$$\int$$" style="rounded=0;whiteSpace=wrap;html=1;" parent="1" vertex="1">
          <mxGeometry x="3480" y="-630" width="60" height="60" as="geometry" />
        </mxCell>
        <mxCell id="gZT7zU2L0v1ULoVjLfHo-49" style="edgeStyle=orthogonalEdgeStyle;rounded=0;orthogonalLoop=1;jettySize=auto;html=1;entryX=0;entryY=0.5;entryDx=0;entryDy=0;startArrow=classic;startFill=1;endArrow=none;endFill=0;exitX=0;exitY=0.5;exitDx=0;exitDy=0;" parent="1" source="gZT7zU2L0v1ULoVjLfHo-50" edge="1">
          <mxGeometry relative="1" as="geometry">
            <mxPoint x="3460" y="-490" as="sourcePoint" />
            <mxPoint x="3460" y="-600.0000000000001" as="targetPoint" />
            <Array as="points">
              <mxPoint x="3430" y="-490" />
              <mxPoint x="3430" y="-600" />
            </Array>
          </mxGeometry>
        </mxCell>
        <mxCell id="UDYI0fP8FvIa38QDDsYo-4" style="edgeStyle=orthogonalEdgeStyle;rounded=0;orthogonalLoop=1;jettySize=auto;html=1;entryX=0.5;entryY=1;entryDx=0;entryDy=0;" edge="1" parent="1" source="gZT7zU2L0v1ULoVjLfHo-50" target="UDYI0fP8FvIa38QDDsYo-2">
          <mxGeometry relative="1" as="geometry" />
        </mxCell>
        <mxCell id="UDYI0fP8FvIa38QDDsYo-62" value="+" style="edgeLabel;html=1;align=center;verticalAlign=middle;resizable=0;points=[];" vertex="1" connectable="0" parent="UDYI0fP8FvIa38QDDsYo-4">
          <mxGeometry x="0.8094" relative="1" as="geometry">
            <mxPoint x="10" y="-4" as="offset" />
          </mxGeometry>
        </mxCell>
        <mxCell id="gZT7zU2L0v1ULoVjLfHo-50" value="$$\hat{A}$$" style="rounded=0;whiteSpace=wrap;html=1;" parent="1" vertex="1">
          <mxGeometry x="3480" y="-520" width="60" height="60" as="geometry" />
        </mxCell>
        <mxCell id="UDYI0fP8FvIa38QDDsYo-1" style="edgeStyle=orthogonalEdgeStyle;rounded=0;orthogonalLoop=1;jettySize=auto;html=1;entryX=1;entryY=0.5;entryDx=0;entryDy=0;" edge="1" parent="1" source="gZT7zU2L0v1ULoVjLfHo-52" target="UDYI0fP8FvIa38QDDsYo-2">
          <mxGeometry relative="1" as="geometry">
            <mxPoint x="3610" y="-565" as="targetPoint" />
          </mxGeometry>
        </mxCell>
        <mxCell id="UDYI0fP8FvIa38QDDsYo-61" value="+" style="edgeLabel;html=1;align=center;verticalAlign=middle;resizable=0;points=[];" vertex="1" connectable="0" parent="UDYI0fP8FvIa38QDDsYo-1">
          <mxGeometry x="0.3589" relative="1" as="geometry">
            <mxPoint x="-3" y="10" as="offset" />
          </mxGeometry>
        </mxCell>
        <mxCell id="gZT7zU2L0v1ULoVjLfHo-52" value="$$\hat{B}$$" style="rounded=0;whiteSpace=wrap;html=1;" parent="1" vertex="1">
          <mxGeometry x="3640" y="-630" width="60" height="60" as="geometry" />
        </mxCell>
        <mxCell id="UDYI0fP8FvIa38QDDsYo-29" style="edgeStyle=orthogonalEdgeStyle;rounded=0;orthogonalLoop=1;jettySize=auto;html=1;entryX=0.5;entryY=1;entryDx=0;entryDy=0;" edge="1" parent="1" source="gZT7zU2L0v1ULoVjLfHo-63" target="UDYI0fP8FvIa38QDDsYo-28">
          <mxGeometry relative="1" as="geometry" />
        </mxCell>
        <mxCell id="UDYI0fP8FvIa38QDDsYo-55" value="-" style="edgeLabel;html=1;align=center;verticalAlign=middle;resizable=0;points=[];labelBackgroundColor=none;" vertex="1" connectable="0" parent="UDYI0fP8FvIa38QDDsYo-29">
          <mxGeometry x="0.5007" y="-1" relative="1" as="geometry">
            <mxPoint x="9" y="-5" as="offset" />
          </mxGeometry>
        </mxCell>
        <mxCell id="gZT7zU2L0v1ULoVjLfHo-63" value="$$C_{\ddot{\theta}}A$$" style="rounded=0;whiteSpace=wrap;html=1;" parent="1" vertex="1">
          <mxGeometry x="3070" y="-600" width="60" height="60" as="geometry" />
        </mxCell>
        <mxCell id="gZT7zU2L0v1ULoVjLfHo-64" value="" style="endArrow=classic;html=1;rounded=0;entryX=1;entryY=0.5;entryDx=0;entryDy=0;" parent="1" target="UDYI0fP8FvIa38QDDsYo-31" edge="1">
          <mxGeometry width="50" height="50" relative="1" as="geometry">
            <mxPoint x="3280" y="-670" as="sourcePoint" />
            <mxPoint x="3248" y="-670.13" as="targetPoint" />
            <Array as="points">
              <mxPoint x="3248" y="-669.86" />
            </Array>
          </mxGeometry>
        </mxCell>
        <mxCell id="gZT7zU2L0v1ULoVjLfHo-65" value="$$\ddot{\theta}_s$$" style="edgeLabel;html=1;align=center;verticalAlign=middle;resizable=0;points=[];labelBackgroundColor=none;" parent="gZT7zU2L0v1ULoVjLfHo-64" vertex="1" connectable="0">
          <mxGeometry x="-0.424" y="-2" relative="1" as="geometry">
            <mxPoint x="4" y="-9" as="offset" />
          </mxGeometry>
        </mxCell>
        <mxCell id="UDYI0fP8FvIa38QDDsYo-3" style="edgeStyle=orthogonalEdgeStyle;rounded=0;orthogonalLoop=1;jettySize=auto;html=1;entryX=1;entryY=0.5;entryDx=0;entryDy=0;" edge="1" parent="1" source="UDYI0fP8FvIa38QDDsYo-2" target="gZT7zU2L0v1ULoVjLfHo-48">
          <mxGeometry relative="1" as="geometry" />
        </mxCell>
        <mxCell id="UDYI0fP8FvIa38QDDsYo-72" value="$$\dot{\tilde{\eta}}$$" style="edgeLabel;html=1;align=center;verticalAlign=middle;resizable=0;points=[];labelBackgroundColor=none;" vertex="1" connectable="0" parent="UDYI0fP8FvIa38QDDsYo-3">
          <mxGeometry x="-0.0886" y="-2" relative="1" as="geometry">
            <mxPoint y="-18" as="offset" />
          </mxGeometry>
        </mxCell>
        <mxCell id="UDYI0fP8FvIa38QDDsYo-2" value="" style="shape=sumEllipse;perimeter=ellipsePerimeter;whiteSpace=wrap;html=1;backgroundOutline=1;" vertex="1" parent="1">
          <mxGeometry x="3580" y="-610" width="20" height="20" as="geometry" />
        </mxCell>
        <mxCell id="UDYI0fP8FvIa38QDDsYo-7" style="edgeStyle=orthogonalEdgeStyle;rounded=0;orthogonalLoop=1;jettySize=auto;html=1;entryX=0.5;entryY=0;entryDx=0;entryDy=0;" edge="1" parent="1" source="UDYI0fP8FvIa38QDDsYo-5" target="UDYI0fP8FvIa38QDDsYo-6">
          <mxGeometry relative="1" as="geometry" />
        </mxCell>
        <mxCell id="UDYI0fP8FvIa38QDDsYo-63" value="+" style="edgeLabel;html=1;align=center;verticalAlign=middle;resizable=0;points=[];" vertex="1" connectable="0" parent="UDYI0fP8FvIa38QDDsYo-7">
          <mxGeometry x="0.9066" y="1" relative="1" as="geometry">
            <mxPoint x="9" as="offset" />
          </mxGeometry>
        </mxCell>
        <mxCell id="UDYI0fP8FvIa38QDDsYo-12" style="edgeStyle=orthogonalEdgeStyle;rounded=0;orthogonalLoop=1;jettySize=auto;html=1;entryX=1;entryY=0.5;entryDx=0;entryDy=0;" edge="1" parent="1" source="UDYI0fP8FvIa38QDDsYo-6" target="UDYI0fP8FvIa38QDDsYo-11">
          <mxGeometry relative="1" as="geometry" />
        </mxCell>
        <mxCell id="UDYI0fP8FvIa38QDDsYo-13" value="$$\tilde{x}$$" style="edgeLabel;html=1;align=center;verticalAlign=middle;resizable=0;points=[];labelBackgroundColor=none;" vertex="1" connectable="0" parent="UDYI0fP8FvIa38QDDsYo-12">
          <mxGeometry x="0.6259" relative="1" as="geometry">
            <mxPoint x="100" y="-10" as="offset" />
          </mxGeometry>
        </mxCell>
        <mxCell id="UDYI0fP8FvIa38QDDsYo-14" style="edgeStyle=orthogonalEdgeStyle;rounded=0;orthogonalLoop=1;jettySize=auto;html=1;entryX=0.5;entryY=1;entryDx=0;entryDy=0;" edge="1" parent="1" source="UDYI0fP8FvIa38QDDsYo-6" target="gZT7zU2L0v1ULoVjLfHo-63">
          <mxGeometry relative="1" as="geometry" />
        </mxCell>
        <mxCell id="UDYI0fP8FvIa38QDDsYo-6" value="" style="shape=sumEllipse;perimeter=ellipsePerimeter;whiteSpace=wrap;html=1;backgroundOutline=1;" vertex="1" parent="1">
          <mxGeometry x="3190" y="-470" width="20" height="20" as="geometry" />
        </mxCell>
        <mxCell id="UDYI0fP8FvIa38QDDsYo-10" style="edgeStyle=orthogonalEdgeStyle;rounded=0;orthogonalLoop=1;jettySize=auto;html=1;entryX=0.5;entryY=1;entryDx=0;entryDy=0;" edge="1" parent="1" source="UDYI0fP8FvIa38QDDsYo-9" target="UDYI0fP8FvIa38QDDsYo-6">
          <mxGeometry relative="1" as="geometry" />
        </mxCell>
        <mxCell id="UDYI0fP8FvIa38QDDsYo-64" value="+" style="edgeLabel;html=1;align=center;verticalAlign=middle;resizable=0;points=[];" vertex="1" connectable="0" parent="UDYI0fP8FvIa38QDDsYo-10">
          <mxGeometry x="0.8635" relative="1" as="geometry">
            <mxPoint x="10" as="offset" />
          </mxGeometry>
        </mxCell>
        <mxCell id="UDYI0fP8FvIa38QDDsYo-42" style="edgeStyle=orthogonalEdgeStyle;rounded=0;orthogonalLoop=1;jettySize=auto;html=1;entryX=0.5;entryY=1;entryDx=0;entryDy=0;" edge="1" parent="1" source="UDYI0fP8FvIa38QDDsYo-11" target="UDYI0fP8FvIa38QDDsYo-25">
          <mxGeometry relative="1" as="geometry" />
        </mxCell>
        <mxCell id="UDYI0fP8FvIa38QDDsYo-58" value="-" style="edgeLabel;html=1;align=center;verticalAlign=middle;resizable=0;points=[];" vertex="1" connectable="0" parent="UDYI0fP8FvIa38QDDsYo-42">
          <mxGeometry x="0.951" relative="1" as="geometry">
            <mxPoint x="-10" y="-4" as="offset" />
          </mxGeometry>
        </mxCell>
        <mxCell id="UDYI0fP8FvIa38QDDsYo-11" value="$$K$$" style="rounded=0;whiteSpace=wrap;html=1;" vertex="1" parent="1">
          <mxGeometry x="2970" y="-490" width="60" height="60" as="geometry" />
        </mxCell>
        <mxCell id="UDYI0fP8FvIa38QDDsYo-22" style="edgeStyle=orthogonalEdgeStyle;rounded=0;orthogonalLoop=1;jettySize=auto;html=1;entryX=0.5;entryY=0;entryDx=0;entryDy=0;strokeColor=default;strokeWidth=1;" edge="1" parent="1" source="UDYI0fP8FvIa38QDDsYo-15" target="UDYI0fP8FvIa38QDDsYo-18">
          <mxGeometry relative="1" as="geometry" />
        </mxCell>
        <mxCell id="UDYI0fP8FvIa38QDDsYo-51" value="+" style="edgeLabel;html=1;align=center;verticalAlign=middle;resizable=0;points=[];labelBackgroundColor=none;" vertex="1" connectable="0" parent="UDYI0fP8FvIa38QDDsYo-22">
          <mxGeometry x="0.7429" relative="1" as="geometry">
            <mxPoint x="-10" y="8" as="offset" />
          </mxGeometry>
        </mxCell>
        <mxCell id="UDYI0fP8FvIa38QDDsYo-15" value="$$B_\tau$$" style="rounded=0;whiteSpace=wrap;html=1;" vertex="1" parent="1">
          <mxGeometry x="3160" y="-1040" width="60" height="60" as="geometry" />
        </mxCell>
        <mxCell id="UDYI0fP8FvIa38QDDsYo-24" style="edgeStyle=orthogonalEdgeStyle;rounded=0;orthogonalLoop=1;jettySize=auto;html=1;entryX=0;entryY=0.5;entryDx=0;entryDy=0;" edge="1" parent="1" source="UDYI0fP8FvIa38QDDsYo-18" target="UDYI0fP8FvIa38QDDsYo-8">
          <mxGeometry relative="1" as="geometry" />
        </mxCell>
        <mxCell id="UDYI0fP8FvIa38QDDsYo-48" value="+" style="edgeLabel;html=1;align=center;verticalAlign=middle;resizable=0;points=[];labelBackgroundColor=none;" vertex="1" connectable="0" parent="UDYI0fP8FvIa38QDDsYo-24">
          <mxGeometry x="0.7699" y="-1" relative="1" as="geometry">
            <mxPoint y="9" as="offset" />
          </mxGeometry>
        </mxCell>
        <mxCell id="UDYI0fP8FvIa38QDDsYo-18" value="" style="shape=sumEllipse;perimeter=ellipsePerimeter;whiteSpace=wrap;html=1;backgroundOutline=1;" vertex="1" parent="1">
          <mxGeometry x="3320" y="-940" width="20" height="20" as="geometry" />
        </mxCell>
        <mxCell id="UDYI0fP8FvIa38QDDsYo-20" value="" style="endArrow=classic;html=1;rounded=0;entryX=0;entryY=0.5;entryDx=0;entryDy=0;" edge="1" parent="1" target="UDYI0fP8FvIa38QDDsYo-15">
          <mxGeometry width="50" height="50" relative="1" as="geometry">
            <mxPoint x="3130" y="-1010" as="sourcePoint" />
            <mxPoint x="3210" y="-910" as="targetPoint" />
          </mxGeometry>
        </mxCell>
        <mxCell id="UDYI0fP8FvIa38QDDsYo-21" value="$$\tau$$" style="edgeLabel;html=1;align=center;verticalAlign=middle;resizable=0;points=[];labelBackgroundColor=none;" vertex="1" connectable="0" parent="UDYI0fP8FvIa38QDDsYo-20">
          <mxGeometry x="-0.6667" y="1" relative="1" as="geometry">
            <mxPoint x="2" y="-14" as="offset" />
          </mxGeometry>
        </mxCell>
        <mxCell id="UDYI0fP8FvIa38QDDsYo-40" style="edgeStyle=orthogonalEdgeStyle;rounded=0;orthogonalLoop=1;jettySize=auto;html=1;entryX=0;entryY=0.5;entryDx=0;entryDy=0;" edge="1" parent="1" source="UDYI0fP8FvIa38QDDsYo-25" target="UDYI0fP8FvIa38QDDsYo-38">
          <mxGeometry relative="1" as="geometry" />
        </mxCell>
        <mxCell id="UDYI0fP8FvIa38QDDsYo-56" value="+" style="edgeLabel;html=1;align=center;verticalAlign=middle;resizable=0;points=[];" vertex="1" connectable="0" parent="UDYI0fP8FvIa38QDDsYo-40">
          <mxGeometry x="0.5674" relative="1" as="geometry">
            <mxPoint y="10" as="offset" />
          </mxGeometry>
        </mxCell>
        <mxCell id="UDYI0fP8FvIa38QDDsYo-25" value="" style="shape=sumEllipse;perimeter=ellipsePerimeter;whiteSpace=wrap;html=1;backgroundOutline=1;" vertex="1" parent="1">
          <mxGeometry x="2845" y="-940" width="20" height="20" as="geometry" />
        </mxCell>
        <mxCell id="UDYI0fP8FvIa38QDDsYo-39" style="edgeStyle=orthogonalEdgeStyle;rounded=0;orthogonalLoop=1;jettySize=auto;html=1;entryX=0.5;entryY=1;entryDx=0;entryDy=0;" edge="1" parent="1" source="UDYI0fP8FvIa38QDDsYo-27" target="UDYI0fP8FvIa38QDDsYo-38">
          <mxGeometry relative="1" as="geometry" />
        </mxCell>
        <mxCell id="UDYI0fP8FvIa38QDDsYo-57" value="-" style="edgeLabel;html=1;align=center;verticalAlign=middle;resizable=0;points=[];" vertex="1" connectable="0" parent="UDYI0fP8FvIa38QDDsYo-39">
          <mxGeometry x="0.9044" relative="1" as="geometry">
            <mxPoint x="-10" y="-5" as="offset" />
          </mxGeometry>
        </mxCell>
        <mxCell id="UDYI0fP8FvIa38QDDsYo-27" value="$$K_c$$" style="rounded=0;whiteSpace=wrap;html=1;" vertex="1" parent="1">
          <mxGeometry x="2970" y="-700" width="60" height="60" as="geometry" />
        </mxCell>
        <mxCell id="UDYI0fP8FvIa38QDDsYo-33" style="edgeStyle=orthogonalEdgeStyle;rounded=0;orthogonalLoop=1;jettySize=auto;html=1;entryX=1;entryY=0.5;entryDx=0;entryDy=0;" edge="1" parent="1" source="UDYI0fP8FvIa38QDDsYo-28" target="UDYI0fP8FvIa38QDDsYo-27">
          <mxGeometry relative="1" as="geometry" />
        </mxCell>
        <mxCell id="UDYI0fP8FvIa38QDDsYo-34" value="$$\tilde{\tau}$$" style="edgeLabel;html=1;align=center;verticalAlign=middle;resizable=0;points=[];labelBackgroundColor=none;" vertex="1" connectable="0" parent="UDYI0fP8FvIa38QDDsYo-33">
          <mxGeometry x="0.1035" y="-1" relative="1" as="geometry">
            <mxPoint x="23" y="-9" as="offset" />
          </mxGeometry>
        </mxCell>
        <mxCell id="UDYI0fP8FvIa38QDDsYo-45" style="edgeStyle=orthogonalEdgeStyle;rounded=0;orthogonalLoop=1;jettySize=auto;html=1;entryX=0;entryY=0.5;entryDx=0;entryDy=0;exitX=0;exitY=0.5;exitDx=0;exitDy=0;" edge="1" parent="1" source="UDYI0fP8FvIa38QDDsYo-28" target="UDYI0fP8FvIa38QDDsYo-43">
          <mxGeometry relative="1" as="geometry">
            <mxPoint x="3060" y="-779.9999999999999" as="targetPoint" />
            <Array as="points">
              <mxPoint x="3060" y="-670" />
              <mxPoint x="3060" y="-760" />
            </Array>
          </mxGeometry>
        </mxCell>
        <mxCell id="UDYI0fP8FvIa38QDDsYo-28" value="" style="shape=sumEllipse;perimeter=ellipsePerimeter;whiteSpace=wrap;html=1;backgroundOutline=1;" vertex="1" parent="1">
          <mxGeometry x="3090" y="-680" width="20" height="20" as="geometry" />
        </mxCell>
        <mxCell id="UDYI0fP8FvIa38QDDsYo-32" style="edgeStyle=orthogonalEdgeStyle;rounded=0;orthogonalLoop=1;jettySize=auto;html=1;entryX=1;entryY=0.5;entryDx=0;entryDy=0;" edge="1" parent="1" source="UDYI0fP8FvIa38QDDsYo-31" target="UDYI0fP8FvIa38QDDsYo-28">
          <mxGeometry relative="1" as="geometry" />
        </mxCell>
        <mxCell id="UDYI0fP8FvIa38QDDsYo-54" value="+" style="edgeLabel;html=1;align=center;verticalAlign=middle;resizable=0;points=[];labelBackgroundColor=none;" vertex="1" connectable="0" parent="UDYI0fP8FvIa38QDDsYo-32">
          <mxGeometry relative="1" as="geometry">
            <mxPoint x="-25" y="10" as="offset" />
          </mxGeometry>
        </mxCell>
        <mxCell id="UDYI0fP8FvIa38QDDsYo-37" value="" style="shape=sumEllipse;perimeter=ellipsePerimeter;whiteSpace=wrap;html=1;backgroundOutline=1;" vertex="1" parent="1">
          <mxGeometry x="3320" y="-770" width="20" height="20" as="geometry" />
        </mxCell>
        <mxCell id="UDYI0fP8FvIa38QDDsYo-41" style="edgeStyle=orthogonalEdgeStyle;rounded=0;orthogonalLoop=1;jettySize=auto;html=1;entryX=0;entryY=0.5;entryDx=0;entryDy=0;" edge="1" parent="1" source="UDYI0fP8FvIa38QDDsYo-38" target="gZT7zU2L0v1ULoVjLfHo-24">
          <mxGeometry relative="1" as="geometry" />
        </mxCell>
        <mxCell id="UDYI0fP8FvIa38QDDsYo-44" style="edgeStyle=orthogonalEdgeStyle;rounded=0;orthogonalLoop=1;jettySize=auto;html=1;entryX=0;entryY=0.5;entryDx=0;entryDy=0;" edge="1" parent="1" source="UDYI0fP8FvIa38QDDsYo-38" target="gZT7zU2L0v1ULoVjLfHo-40">
          <mxGeometry relative="1" as="geometry">
            <Array as="points">
              <mxPoint x="3070" y="-930" />
              <mxPoint x="3070" y="-840" />
            </Array>
          </mxGeometry>
        </mxCell>
        <mxCell id="UDYI0fP8FvIa38QDDsYo-65" value="$$v$$" style="edgeLabel;html=1;align=center;verticalAlign=middle;resizable=0;points=[];labelBackgroundColor=none;" vertex="1" connectable="0" parent="UDYI0fP8FvIa38QDDsYo-44">
          <mxGeometry x="-0.7624" y="1" relative="1" as="geometry">
            <mxPoint x="-30" y="-9" as="offset" />
          </mxGeometry>
        </mxCell>
        <mxCell id="UDYI0fP8FvIa38QDDsYo-38" value="" style="shape=sumEllipse;perimeter=ellipsePerimeter;whiteSpace=wrap;html=1;backgroundOutline=1;" vertex="1" parent="1">
          <mxGeometry x="2910" y="-940" width="20" height="20" as="geometry" />
        </mxCell>
        <mxCell id="UDYI0fP8FvIa38QDDsYo-46" style="edgeStyle=orthogonalEdgeStyle;rounded=0;orthogonalLoop=1;jettySize=auto;html=1;entryX=0;entryY=0.5;entryDx=0;entryDy=0;" edge="1" parent="1" source="UDYI0fP8FvIa38QDDsYo-43" target="UDYI0fP8FvIa38QDDsYo-37">
          <mxGeometry relative="1" as="geometry" />
        </mxCell>
        <mxCell id="UDYI0fP8FvIa38QDDsYo-52" value="+" style="edgeLabel;html=1;align=center;verticalAlign=middle;resizable=0;points=[];labelBackgroundColor=none;" vertex="1" connectable="0" parent="UDYI0fP8FvIa38QDDsYo-46">
          <mxGeometry x="0.5571" y="1" relative="1" as="geometry">
            <mxPoint x="10" y="-9" as="offset" />
          </mxGeometry>
        </mxCell>
        <mxCell id="UDYI0fP8FvIa38QDDsYo-43" value="$$\hat{F}_\tau$$" style="rounded=0;whiteSpace=wrap;html=1;" vertex="1" parent="1">
          <mxGeometry x="3160" y="-790" width="60" height="60" as="geometry" />
        </mxCell>
      </root>
    </mxGraphModel>
  </diagram>
</mxfile>
